<svg xmlns="http://www.w3.org/2000/svg" version="1.1" xmlns:xlink="http://www.w3.org/1999/xlink" xmlns:svgjs="http://svgjs.dev/svgjs" width="1000" height="1000" viewBox="0 0 1000 1000"><rect width="1000" height="1000" fill="#ffffff"></rect><g transform="matrix(0.7,0,0,0.7,149.57575757575756,374.78957433304265)"><svg viewBox="0 0 396 142" data-background-color="#ffffff" preserveAspectRatio="xMidYMid meet" height="358" width="1000" xmlns="http://www.w3.org/2000/svg" xmlns:xlink="http://www.w3.org/1999/xlink"><defs></defs><g id="tight-bounds" transform="matrix(1,0,0,1,0.2400000000000091,-0.05075640579434548)"><svg viewBox="0 0 395.52 142.10151281158872" height="142.10151281158872" width="395.52"><g><svg viewBox="0 0 680.3410434861726 244.43135999999998" height="142.10151281158872" width="395.52"><g transform="matrix(1,0,0,1,284.8210434861725,87.99815387606318)"><svg viewBox="0 0 395.52 68.43505224787363" height="68.43505224787363" width="395.52"><g><svg viewBox="0 0 395.52 68.43505224787363" height="68.43505224787363" width="395.52"><g><svg viewBox="0 0 395.52 68.43505224787363" height="68.43505224787363" width="395.52"><g transform="matrix(1,0,0,1,0,0)"><svg width="395.52" viewBox="1.399999976158142 -35 205.74000549316406 35.599998474121094" height="68.43505224787363" data-palette-color="#50a060"><path d="M7.15 0L1.4 0 11.85-35 18.15-35 28.6 0 22.85 0 20.5-8.4 9.5-8.4 7.15 0ZM15.15-27.5L14.85-27.5 10.7-12.65 19.3-12.65 15.15-27.5ZM37.6 0L32.55 0 32.55-35 37.75-35 52.4-9.35 52.4-35 57.45-35 57.45 0 52.25 0 37.6-25.65 37.6 0ZM77.65 0L72.34 0 72.34-30.25 62.95-30.25 62.95-35 87.05-35 87.05-30.25 77.65-30.25 77.65 0ZM116.34 0L93.99 0 93.99-35 116.34-35 116.34-30.25 99.29-30.25 99.29-20.05 114.84-20.05 114.84-15.35 99.29-15.35 99.29-4.75 116.34-4.75 116.34 0ZM127.34 0L122.04 0 122.04-35 127.34-35 127.34-20.5 142.64-20.5 142.64-35 147.94-35 147.94 0 142.64 0 142.64-15.65 127.34-15.65 127.34 0ZM164.89 0.6L164.89 0.6Q161.34 0.6 158.56-0.85 155.79-2.3 154.19-5.28 152.59-8.25 152.59-12.8L152.59-12.8 152.59-35 157.89-35 157.89-12.5Q157.89-8.5 159.79-6.33 161.69-4.15 164.99-4.15L164.99-4.15Q168.29-4.15 170.19-6.33 172.09-8.5 172.09-12.5L172.09-12.5 172.09-35 177.39-35 177.39-12.8Q177.39-8.25 175.74-5.28 174.09-2.3 171.26-0.85 168.44 0.6 164.89 0.6ZM195.69 0L182.79 0 182.79-35 195.29-35Q200.74-35 203.54-32.5 206.34-30 206.34-26.05L206.34-26.05Q206.34-23 204.74-21.1 203.14-19.2 201.04-18.35L201.04-18.35 201.04-18Q203.54-17.1 205.34-15.08 207.14-13.05 207.14-9.75L207.14-9.75Q207.14-7.05 205.81-4.83 204.49-2.6 201.94-1.3 199.39 0 195.69 0L195.69 0ZM188.09-30.3L188.09-20.4 194.64-20.4Q197.69-20.4 199.29-21.63 200.89-22.85 200.89-25.35L200.89-25.35Q200.89-30.3 194.54-30.3L194.54-30.3 188.09-30.3ZM188.09-15.9L188.09-4.9 194.99-4.9Q198.24-4.9 199.99-6.3 201.74-7.7 201.74-10.4L201.74-10.4Q201.74-13.05 199.89-14.48 198.04-15.9 194.89-15.9L194.89-15.9 188.09-15.9Z" opacity="1" transform="matrix(1,0,0,1,0,0)" fill="#50a060" class="undefined-text-0" data-fill-palette-color="primary" id="text-0"></path></svg></g></svg></g></svg></g></svg></g><g><svg viewBox="0 0 244.43135999999998 244.43135999999998" height="244.43135999999998" width="244.43135999999998"><g><svg viewBox="0 0 244.43135999999998 244.43135999999998" height="244.43135999999998" width="244.43135999999998"><g transform="matrix(1,0,0,1,64.57004038534441,86.78931722432915)"><svg viewBox="0 0 115.29127922931117 70.85272555134168" height="70.85272555134168" width="115.29127922931117"><g><svg xmlns="http://www.w3.org/2000/svg" data-name="Layer 1" viewBox="2.430551767349243 20.79190444946289 95.1390609741211 58.46809768676758" x="0" y="0" height="70.85272555134168" width="115.29127922931117" class="icon-x-0" data-fill-palette-color="accent" id="x-0"><path d="M62.78 23l32 55.42 1.3-2.26h-64l1.3 2.26L65.37 23a1.5 1.5 0 0 0-2.59-1.51L30.79 77a1.51 1.51 0 0 0 1.3 2.26h64A1.51 1.51 0 0 0 97.37 77l-32-55.42A1.5 1.5 0 0 0 62.78 23Z" fill="#50a060" data-fill-palette-color="accent"></path><path d="M34.63 23l32 55.42 1.3-2.26h-64l1.3 2.26L37.22 23a1.5 1.5 0 0 0-2.59-1.51L2.63 77a1.51 1.51 0 0 0 1.3 2.26h64A1.51 1.51 0 0 0 69.21 77l-32-55.42A1.5 1.5 0 0 0 34.63 23Z" fill="#50a060" data-fill-palette-color="accent"></path></svg></g></svg></g><path d="M21.911 94.46l-1.044 3.077-16.8-11.934 1.14-3.36 20.594 0.759-1.045 3.077-4.909-0.266-1.993 5.87zM8.674 85.209l-0.055 0.161 7.179 4.899 1.557-4.587zM42.59 56.572l-1.908 2.118-14.668-13.218 1.968-2.184 16.282 3.549-10.751-9.688 1.909-2.117 14.668 13.218-1.969 2.184-16.282-3.55zM81.709 28.011l-2.721 1.239-7.071-15.53-4.826 2.197-1.11-2.44 12.373-5.633 1.111 2.44-4.826 2.197zM128.755 19.741l-12.607 0.243-0.379-19.741 12.606-0.243 0.051 2.681-9.616 0.185 0.11 5.75 8.77-0.169 0.051 2.651-8.77 0.168 0.115 5.98 9.617-0.186zM160.27 27.055l-2.751-1.17 7.726-18.171 2.752 1.17-3.202 7.531 7.943 3.377 3.202-7.53 2.752 1.17-7.727 18.17-2.751-1.17 3.455-8.127-7.943-3.377zM198.893 53.803v0c-0.919-0.969-1.541-2.019-1.864-3.15-0.323-1.132-0.283-2.301 0.12-3.508 0.393-1.207 1.209-2.398 2.448-3.574v0l9.086-8.626 2.059 2.169-9.21 8.742c-1.089 1.034-1.683 2.092-1.782 3.175-0.103 1.078 0.273 2.068 1.129 2.97v0c0.855 0.901 1.824 1.328 2.906 1.281 1.087-0.042 2.175-0.58 3.264-1.614v0l9.21-8.742 2.058 2.169-9.086 8.625c-1.239 1.176-2.478 1.921-3.718 2.237-1.24 0.325-2.423 0.289-3.55-0.107-1.127-0.396-2.15-1.078-3.07-2.047zM221.344 90.78l-2.488-6.848 18.558-6.742 2.41 6.633c0.699 1.924 0.785 3.543 0.259 4.858-0.522 1.307-1.483 2.214-2.882 2.723v0c-1.074 0.39-2.051 0.427-2.929 0.109-0.875-0.326-1.6-0.804-2.176-1.436v0l-0.178 0.065c0.004 1.003-0.238 1.953-0.725 2.85-0.481 0.896-1.305 1.556-2.472 1.98v0c-0.956 0.347-1.912 0.429-2.869 0.247-0.957-0.183-1.828-0.644-2.613-1.384-0.789-0.731-1.42-1.75-1.895-3.055zM235.944 80.906l-5.247 1.906 1.263 3.475c0.393 1.08 0.906 1.823 1.541 2.229 0.637 0.412 1.4 0.457 2.287 0.135v0c1.749-0.635 2.215-2.077 1.398-4.326v0zM228.309 83.68l-5.837 2.12 1.331 3.663c0.417 1.149 0.988 1.942 1.713 2.379 0.718 0.439 1.555 0.485 2.51 0.138v0c0.937-0.34 1.536-0.929 1.797-1.767 0.27-0.833 0.202-1.809-0.204-2.927v0zM8.664 160.222l-1.044-3.077 20.593-0.759 1.141 3.36-16.801 11.934-1.044-3.077 4.057-2.777-1.993-5.871zM24.807 159.5l-0.051-0.151-8.69 0.476 1.557 4.587zM32.197 202.978l-1.908-2.117 14.668-13.218 1.968 2.184-5.22 15.826 10.751-9.688 1.909 2.118-14.668 13.218-1.969-2.185 5.22-15.826zM75.912 234.907l-2.722-1.239 7.071-15.53-4.826-2.197 1.111-2.441 12.373 5.634-1.111 2.44-4.826-2.197zM128.484 244.431l-12.606-0.242 0.38-19.741 12.606 0.242-0.051 2.681-9.617-0.185-0.11 5.75 8.779 0.169-0.051 2.65-8.779-0.169-0.116 5.98 9.617 0.185zM165.743 236.005l-2.751 1.17-7.726-18.17 2.751-1.17 3.202 7.53 7.944-3.377-3.202-7.53 2.751-1.17 7.726 18.17-2.751 1.17-3.456-8.127-7.943 3.378zM209.53 206.481v0c-0.919 0.969-1.936 1.644-3.049 2.025-1.113 0.381-2.283 0.403-3.51 0.063-1.226-0.33-2.458-1.083-3.696-2.258v0l-9.087-8.626 2.058-2.168 9.203 8.735c1.094 1.038 2.184 1.579 3.271 1.621 1.082 0.047 2.051-0.38 2.907-1.281v0c0.855-0.901 1.232-1.891 1.128-2.969-0.099-1.083-0.695-2.144-1.789-3.183v0l-9.202-8.735 2.058-2.169 9.087 8.626c1.239 1.176 2.048 2.374 2.427 3.596 0.389 1.221 0.415 2.405 0.078 3.551-0.337 1.146-0.965 2.204-1.884 3.172zM234.493 164.184l-2.488 6.848-18.558-6.743 2.409-6.632c0.699-1.924 1.669-3.222 2.911-3.895 1.245-0.665 2.567-0.743 3.966-0.235v0c1.074 0.39 1.846 0.989 2.317 1.796 0.462 0.811 0.708 1.643 0.737 2.495v0l0.187 0.068c0.641-0.771 1.436-1.345 2.386-1.72 0.943-0.378 1.999-0.355 3.167 0.068v0c0.956 0.347 1.742 0.898 2.358 1.653 0.617 0.754 0.989 1.667 1.116 2.738 0.135 1.067-0.034 2.253-0.508 3.559zM216.96 162.384l5.246 1.906 1.262-3.475c0.393-1.08 0.475-1.98 0.249-2.699-0.224-0.725-0.78-1.248-1.667-1.571v0c-1.749-0.635-3.03 0.168-3.845 2.411v0zM224.594 165.158l5.837 2.12 1.33-3.663c0.417-1.149 0.489-2.124 0.214-2.923-0.269-0.798-0.881-1.37-1.836-1.717v0c-0.937-0.34-1.774-0.273-2.512 0.201-0.742 0.466-1.316 1.258-1.722 2.375v0zM2.73 125.093c0-4.166 3.377-7.543 7.543-7.543 4.166 0 7.543 3.377 7.542 7.543 0 4.166-3.377 7.543-7.542 7.542-4.166 0-7.543-3.377-7.543-7.542zM226.616 125.093c0-4.166 3.377-7.543 7.542-7.543 4.166 0 7.543 3.377 7.543 7.543 0 4.166-3.377 7.543-7.543 7.542-4.166 0-7.543-3.377-7.542-7.542z" fill="#50a060" data-fill-palette-color="accent"></path></svg></g></svg></g></svg></g></svg><rect width="395.52" height="142.10151281158872" fill="none" stroke="none" visibility="hidden"></rect></g></svg></g></svg>